<svg width="74" height="74" viewBox="0 0 74 74" fill="none" xmlns="http://www.w3.org/2000/svg">
<g filter="url(#filter0_d_1_200)">
<circle cx="37" cy="33" r="26" fill="#5ECE7B"/>
<path d="M48.4736 26.8483C48.0186 26.2924 47.3109 25.9545 46.5785 25.9545H31.1907L30.711 24.1668C30.4326 23.1276 29.4732 22.4027 28.3608 22.4027H25.7837C25.3544 22.4027 25 22.7406 25 23.1522C25 23.5627 25.3534 23.9016 25.7837 23.9016H28.3608C28.7398 23.9016 29.0685 24.1432 29.1692 24.5057L32.2517 36.2493C32.53 37.2885 33.4894 38.0134 34.6018 38.0134H44.6833C45.7947 38.0134 46.7808 37.2885 47.0335 36.2493L48.9286 28.8069C49.1053 28.1292 48.9543 27.4043 48.4736 26.8484L48.4736 26.8483ZM47.3879 28.467L45.4928 35.9094C45.3921 36.2718 45.0634 36.5135 44.6844 36.5135H34.6018C34.2228 36.5135 33.8941 36.2718 33.7935 35.9094L31.5953 27.4771H46.5796C46.8323 27.4771 47.085 27.5979 47.237 27.7914C47.388 27.9839 47.463 28.2256 47.388 28.4672L47.3879 28.467Z" fill="white"/>
<path d="M35.1332 38.9778C33.6932 38.9778 32.5059 40.1133 32.5059 41.4903C32.5059 42.8673 33.6933 44.0027 35.1332 44.0027C36.5733 44.0037 37.7606 42.8682 37.7606 41.491C37.7606 40.1138 36.5732 38.9776 35.1332 38.9776V38.9778ZM35.1332 42.4814C34.5519 42.4814 34.0968 42.0463 34.0968 41.4904C34.0968 40.9344 34.5519 40.4993 35.1332 40.4993C35.7146 40.4993 36.1696 40.9344 36.1696 41.4904C36.1687 42.0227 35.689 42.4814 35.1332 42.4814Z" fill="white"/>
<path d="M43.825 38.9778C42.3849 38.9778 41.1976 40.1132 41.1976 41.4902C41.1976 42.8672 42.385 44.0027 43.825 44.0027C45.265 44.0027 46.4524 42.8672 46.4524 41.4902C46.4277 40.1141 45.265 38.9778 43.825 38.9778ZM43.825 42.4814C43.2437 42.4814 42.7886 42.0462 42.7886 41.4903C42.7886 40.9344 43.2437 40.4992 43.825 40.4992C44.4064 40.4992 44.8614 40.9344 44.8614 41.4903C44.8614 42.0226 44.3807 42.4814 43.825 42.4814Z" fill="white"/>
</g>
<defs>
<filter id="filter0_d_1_200" x="0" y="0" width="74" height="74" filterUnits="userSpaceOnUse" color-interpolation-filters="sRGB">
<feFlood flood-opacity="0" result="BackgroundImageFix"/>
<feColorMatrix in="SourceAlpha" type="matrix" values="0 0 0 0 0 0 0 0 0 0 0 0 0 0 0 0 0 0 127 0" result="hardAlpha"/>
<feOffset dy="4"/>
<feGaussianBlur stdDeviation="5.5"/>
<feColorMatrix type="matrix" values="0 0 0 0 0.113725 0 0 0 0 0.121569 0 0 0 0 0.133333 0 0 0 0.1 0"/>
<feBlend mode="normal" in2="BackgroundImageFix" result="effect1_dropShadow_1_200"/>
<feBlend mode="normal" in="SourceGraphic" in2="effect1_dropShadow_1_200" result="shape"/>
</filter>
</defs>
</svg>
